<svg width="20" height="20" viewBox="0 0 20 20" fill="none" xmlns="http://www.w3.org/2000/svg">
<path fill-rule="evenodd" clip-rule="evenodd" d="M9.54291 1.36915C9.82583 1.2104 10.1742 1.2104 10.4567 1.36915C11.8546 2.15374 16.0612 4.5154 17.4596 5.29999C17.7425 5.45832 17.9167 5.75165 17.9167 6.06915C17.9167 7.63832 17.9167 12.3612 17.9167 13.9304C17.9167 14.2479 17.7425 14.5412 17.4596 14.7C16.0617 15.4846 11.855 17.8462 10.4567 18.6308C10.1737 18.7896 9.82541 18.7896 9.54291 18.6308C8.145 17.8462 3.93833 15.4846 2.54 14.7C2.2575 14.5412 2.08333 14.2483 2.08333 13.9308C2.08333 12.3617 2.08333 7.63874 2.08333 6.06957C2.08333 5.75207 2.25749 5.45874 2.54041 5.29999C3.93791 4.5154 8.14541 2.15374 9.54291 1.36915Z" fill="#283593"/>
<path fill-rule="evenodd" clip-rule="evenodd" d="M2.20999 14.335C2.09916 14.1867 2.08333 14.0458 2.08333 13.8562C2.08333 12.2962 2.08333 7.60041 2.08333 6.03999C2.08333 5.72416 2.25708 5.43249 2.53916 5.27499C3.93208 4.49499 8.12458 2.14708 9.51749 1.36666C9.79958 1.20875 10.1817 1.21208 10.4637 1.37C11.8567 2.15 16.035 4.47791 17.4279 5.25791C17.5404 5.32124 17.6262 5.39749 17.7029 5.49791L2.20999 14.335Z" fill="#5C6BC0"/>
<path fill-rule="evenodd" clip-rule="evenodd" d="M10 4.16666C13.2196 4.16666 15.8333 6.78041 15.8333 9.99999C15.8333 13.2196 13.2196 15.8333 10 15.8333C6.78042 15.8333 4.16667 13.2196 4.16667 9.99999C4.16667 6.78041 6.78042 4.16666 10 4.16666ZM10 7.08332C11.6096 7.08332 12.9167 8.38999 12.9167 9.99999C12.9167 11.6096 11.6096 12.9167 10 12.9167C8.39042 12.9167 7.08334 11.6096 7.08334 9.99999C7.08334 8.38999 8.39001 7.08332 10 7.08332Z" fill="white"/>
<path fill-rule="evenodd" clip-rule="evenodd" d="M17.7021 5.50208C17.9171 5.70333 17.9129 6.00666 17.9129 6.24541C17.9129 7.82666 17.8996 12.3242 17.9167 13.9054C17.9183 14.0704 17.8637 14.2442 17.7821 14.375L9.83041 9.99999L17.7021 5.50208Z" fill="#3949AB"/>
</svg>
