<svg width="19" height="19" viewBox="0 0 19 19" fill="none" xmlns="http://www.w3.org/2000/svg">
<path d="M0 3.16667C0 1.41777 1.39452 0 3.11475 0H15.8852C17.6055 0 19 1.41777 19 3.16667V15.8333C19 17.5822 17.6055 19 15.8852 19H3.11475C1.39452 19 0 17.5822 0 15.8333V3.16667Z" fill="#E6AA10" fill-opacity="0.98"/>
<path d="M10.4914 9.71591H11.6512V13.6502C11.6512 14.0139 11.5708 14.3298 11.4101 14.5979C11.2511 14.8661 11.0298 15.0727 10.7461 15.2178C10.4625 15.3629 10.1328 15.4355 9.757 15.4355C9.42278 15.4355 9.11926 15.3758 8.84647 15.2564C8.57547 15.1352 8.36049 14.9515 8.2015 14.7054C8.04252 14.4574 7.96393 14.1461 7.96574 13.7714H9.13372C9.13733 13.9202 9.16714 14.0478 9.22315 14.1544C9.28096 14.2591 9.35954 14.3399 9.45891 14.3968C9.56008 14.4519 9.67932 14.4795 9.81662 14.4795C9.96115 14.4795 10.0831 14.4482 10.1825 14.3858C10.2836 14.3215 10.3604 14.2278 10.4128 14.1048C10.4652 13.9817 10.4914 13.8302 10.4914 13.6502V9.71591Z" fill="white"/>
<path d="M15.6321 11.3387C15.6104 11.1164 15.5174 10.9438 15.353 10.8207C15.1886 10.6976 14.9655 10.6361 14.6836 10.6361C14.4921 10.6361 14.3305 10.6637 14.1986 10.7188C14.0667 10.772 13.9655 10.8464 13.8951 10.9419C13.8264 11.0374 13.7921 11.1458 13.7921 11.267C13.7885 11.368 13.8092 11.4562 13.8544 11.5315C13.9014 11.6068 13.9655 11.672 14.0468 11.7271C14.1281 11.7804 14.2221 11.8272 14.3286 11.8676C14.4352 11.9062 14.549 11.9393 14.6701 11.9668L15.1687 12.088C15.4108 12.1431 15.633 12.2166 15.8354 12.3084C16.0377 12.4003 16.2129 12.5132 16.3611 12.6473C16.5092 12.7814 16.6239 12.9394 16.7052 13.1212C16.7884 13.303 16.8308 13.5115 16.8326 13.7466C16.8308 14.0919 16.7441 14.3913 16.5725 14.6448C16.4026 14.8964 16.1569 15.092 15.8354 15.2316C15.5156 15.3694 15.1299 15.4382 14.6782 15.4382C14.2302 15.4382 13.84 15.3684 13.5075 15.2288C13.1769 15.0893 12.9186 14.8826 12.7325 14.6089C12.5482 14.3334 12.4516 13.9927 12.4425 13.5868H13.578C13.5906 13.776 13.6439 13.934 13.7379 14.0607C13.8336 14.1856 13.961 14.2802 14.12 14.3445C14.2808 14.4069 14.4623 14.4381 14.6647 14.4381C14.8634 14.4381 15.0359 14.4087 15.1823 14.35C15.3304 14.2912 15.4451 14.2095 15.5264 14.1048C15.6077 14.0001 15.6484 13.8798 15.6484 13.7439C15.6484 13.6171 15.6113 13.5106 15.5373 13.4243C15.465 13.3379 15.3584 13.2645 15.2175 13.2039C15.0784 13.1432 14.9077 13.0881 14.7053 13.0385L14.101 12.8843C13.6331 12.7685 13.2636 12.5876 12.9927 12.3415C12.7217 12.0954 12.5871 11.7639 12.5889 11.3469C12.5871 11.0053 12.6765 10.7068 12.8572 10.4515C13.0396 10.1962 13.2898 9.99693 13.6078 9.85366C13.9258 9.7104 14.2871 9.63877 14.6918 9.63877C15.1037 9.63877 15.4632 9.7104 15.7703 9.85366C16.0793 9.99693 16.3195 10.1962 16.4912 10.4515C16.6628 10.7068 16.7513 11.0025 16.7567 11.3387H15.6321Z" fill="white"/>
</svg>
