<svg width="19" height="19" viewBox="0 0 19 19" fill="none" xmlns="http://www.w3.org/2000/svg">
<path d="M0 2.53333C0 1.13421 1.09762 0 2.45161 0H16.5484C17.9024 0 19 1.13421 19 2.53333V16.4667C19 17.8658 17.9024 19 16.5484 19H2.45161C1.09762 19 0 17.8658 0 16.4667V2.53333Z" fill="#093B51" fill-opacity="0.95"/>
<path d="M8.77653 12.4105V11.6879H12.0713V12.4105H10.8431V15.8333H10.0047V12.4105H8.77653Z" fill="white"/>
<path d="M14.7902 12.8801C14.7745 12.7168 14.7073 12.59 14.5884 12.4996C14.4696 12.4092 14.3083 12.3639 14.1046 12.3639C13.9662 12.3639 13.8493 12.3842 13.754 12.4247C13.6586 12.4638 13.5855 12.5185 13.5346 12.5886C13.485 12.6588 13.4601 12.7384 13.4601 12.8275C13.4575 12.9017 13.4726 12.9665 13.5052 13.0218C13.5392 13.0771 13.5855 13.125 13.6443 13.1655C13.703 13.2046 13.771 13.2391 13.848 13.2687C13.925 13.2971 14.0073 13.3214 14.0948 13.3416L14.4552 13.4307C14.6302 13.4712 14.7909 13.5251 14.9371 13.5926C15.0834 13.6601 15.2101 13.7431 15.3171 13.8416C15.4242 13.9401 15.5071 14.0561 15.5659 14.1897C15.626 14.3233 15.6567 14.4765 15.658 14.6492C15.6567 14.9029 15.594 15.1229 15.4699 15.3091C15.3472 15.494 15.1696 15.6377 14.9371 15.7402C14.706 15.8414 14.4272 15.892 14.1007 15.892C13.7768 15.892 13.4948 15.8408 13.2545 15.7382C13.0155 15.6356 12.8287 15.4838 12.6942 15.2828C12.561 15.0803 12.4912 14.83 12.4846 14.5318H13.3054C13.3145 14.6708 13.3531 14.7868 13.421 14.88C13.4902 14.9717 13.5822 15.0412 13.6972 15.0884C13.8134 15.1343 13.9446 15.1573 14.0909 15.1573C14.2345 15.1573 14.3593 15.1357 14.465 15.0925C14.5721 15.0493 14.655 14.9893 14.7138 14.9123C14.7726 14.8354 14.802 14.747 14.802 14.6472C14.802 14.5541 14.7752 14.4758 14.7216 14.4124C14.6694 14.349 14.5924 14.295 14.4905 14.2504C14.3899 14.2059 14.2665 14.1654 14.1203 14.129L13.6835 14.0156C13.3452 13.9306 13.0782 13.7977 12.8823 13.6169C12.6864 13.4361 12.5891 13.1925 12.5904 12.8862C12.5891 12.6352 12.6538 12.4159 12.7843 12.2283C12.9162 12.0408 13.0971 11.8943 13.3269 11.7891C13.5568 11.6838 13.818 11.6312 14.1105 11.6312C14.4082 11.6312 14.6681 11.6838 14.8901 11.7891C15.1134 11.8943 15.2871 12.0408 15.4112 12.2283C15.5352 12.4159 15.5992 12.6332 15.6031 12.8801H14.7902Z" fill="white"/>
</svg>
